<svg width="29" height="29" viewBox="0 0 29 29" fill="none" xmlns="http://www.w3.org/2000/svg">
<g clip-path="url(#clip0_39_150)">
<path d="M26.5832 20.445V24.07C26.5846 24.4065 26.5157 24.7396 26.3808 25.0479C26.246 25.3563 26.0483 25.633 25.8003 25.8605C25.5524 26.088 25.2596 26.2612 24.9408 26.3691C24.622 26.4769 24.2842 26.5169 23.9491 26.4866C20.2308 26.0826 16.6592 24.812 13.5211 22.777C10.6016 20.9218 8.12635 18.4466 6.27115 15.527C4.22904 12.3747 2.95819 8.78574 2.56157 5.05079C2.53137 4.71664 2.57108 4.37987 2.67817 4.06192C2.78526 3.74396 2.95738 3.45179 3.18357 3.204C3.40977 2.95621 3.68508 2.75823 3.99198 2.62267C4.29888 2.48711 4.63064 2.41694 4.96615 2.41662H8.59115C9.17756 2.41085 9.74606 2.61851 10.1907 3.00089C10.6353 3.38327 10.9257 3.91429 11.0078 4.49495C11.1608 5.65503 11.4446 6.79408 11.8536 7.89037C12.0162 8.32286 12.0514 8.79289 11.955 9.24477C11.8587 9.69664 11.6348 10.1114 11.3099 10.44L9.77532 11.9745C11.4954 14.9997 14.0002 17.5044 17.0253 19.2245L18.5599 17.69C18.8884 17.3651 19.3032 17.1412 19.7551 17.0448C20.207 16.9484 20.677 16.9836 21.1095 17.1462C22.2058 17.5553 23.3448 17.839 24.5049 17.992C25.0919 18.0748 25.6279 18.3705 26.0111 18.8228C26.3943 19.275 26.5979 19.8524 26.5832 20.445Z" stroke="#F3F3F3" stroke-width="4" stroke-linecap="round" stroke-linejoin="round"/>
</g>
<defs>
<clipPath id="clip0_39_150">
<rect width="29" height="29" fill="white"/>
</clipPath>
</defs>
</svg>
