<svg width="29" height="29" viewBox="0 0 29 29" fill="none" xmlns="http://www.w3.org/2000/svg">
<path d="M4.83341 24.1666C4.16883 24.1666 3.59991 23.93 3.12664 23.4567C2.65338 22.9834 2.41675 22.4145 2.41675 21.7499V7.24992C2.41675 6.58534 2.65338 6.01641 3.12664 5.54315C3.59991 5.06988 4.16883 4.83325 4.83341 4.83325H24.1667C24.8313 4.83325 25.4003 5.06988 25.8735 5.54315C26.3468 6.01641 26.5834 6.58534 26.5834 7.24992V21.7499C26.5834 22.4145 26.3468 22.9834 25.8735 23.4567C25.4003 23.93 24.8313 24.1666 24.1667 24.1666H4.83341ZM14.5001 15.7083L4.83341 9.66659V21.7499H24.1667V9.66659L14.5001 15.7083ZM14.5001 13.2916L24.1667 7.24992H4.83341L14.5001 13.2916ZM4.83341 9.66659V7.24992V21.7499V9.66659Z" fill="#F2F2F7"/>
</svg>
